# xmcd
#
# Track frame offsets:
#	150
#	9019
#	22589
#	32511
#	44698
#	57444
#	69812
#	82565
#	94418
#	107592
#	123428
#	134545
#	148100
#	158692
#	173528
#	186714
#	200477
#	213317
#	222940
#	236430
#	246116
#	258479
#	270886
#	280364
#	293334
#	304859
#	315159
#	326788
#	337871
#	347989
#
# Disc length: 4751 seconds
# Revision: 0
# Processed by: cddbd v1.5.2PL0 Copyright (c) Steve Scherf et al.
# Submitted via: dBpowerAMP V12.0
#
DISCID=a1128d1e
DTITLE=Various Artist - Les Reines du Country
DYEAR=1900
DGENRE=
TTITLE0=Patsy Cline - Anytime
TTITLE1=Sylvie Wess - Téléphone-moi
TTITLE2=Denyse Émond - L'echo des montagnes
TTITLE3=Kitty Wells - I ll be all smile tonight
TTITLE4=Andrée Anne - Ai-je trop attendu 
TTITLE5=Connie Francis - Cold cold heart
TTITLE6=Genevière Grenier - J'aimerais tant pouvoir te mentir
TTITLE7=Branda Lee - Your cheatin heart
TTITLE8=Johanne Bond - Lorsque je dance avec toi
TTITLE9=Pattie Page - Prisonner song
TTITLE10=Marie King - Personne ne peu comprendre
TTITLE11=Gathe Belley - Suis-je mieux de t`oublier  
TTITLE12=Anita Carter - Freight train blues
TTITLE13=Diane Brisebois - Est-ce que ça t'arrive 
TTITLE14=Jo Stafford - Jambalaya
TTITLE15=Karonaly - T'es tu deja senti seul
TTITLE16=Davis Sisters - Kaw liga
TTITLE17=Lise Gignac - Par un beau soir    
TTITLE18=Wanda Jackson - The last letter
TTITLE19=Sonia Lévesque - J'aimerais avoir encore seize ans   
TTITLE20=Slyvie B - J'aimerais revoir ma mère  
TTITLE21=Mary Ford - The end of the world
TTITLE22=Lyli Chamberland - Tu es toute ma vie
TTITLE23=Émilie Roy - Sous les étoiles
TTITLE24=Auberte Castonguay - Le déçès de mon père  
TTITLE25=Jean Shepard - Foggy river
TTITLE26=Johanne Bond - J'ai encore de l'amour pour toi
TTITLE27=Pierrette Veilleux - La plus belle des tyroliennes   
TTITLE28=Pierret Beauchamp - Fleur du tyrol
TTITLE29=Les soeurs Maddox - I saw the light
EXTD=
EXTT0=
EXTT1=
EXTT2=
EXTT3=
EXTT4=
EXTT5=
EXTT6=
EXTT7=
EXTT8=
EXTT9=
EXTT10=
EXTT11=
EXTT12=
EXTT13=
EXTT14=
EXTT15=
EXTT16=
EXTT17=
EXTT18=
EXTT19=
EXTT20=
EXTT21=
EXTT22=
EXTT23=
EXTT24=
EXTT25=
EXTT26=
EXTT27=
EXTT28=
EXTT29=
PLAYORDER=
